<svg width="242" height="200" viewBox="0 0 242 200" fill="none" xmlns="http://www.w3.org/2000/svg">
<path d="M31.1367 83.8789L116.172 30.2098L201.207 83.8789V162.183H31.1367V83.8789V83.8789Z" fill="#E6E7E8"/>
<path fill-rule="evenodd" clip-rule="evenodd" d="M30.7424 162.183C30.7424 162.401 30.9187 162.577 31.1362 162.577H201.207C201.422 162.595 201.611 162.437 201.632 162.223V83.9183C201.632 83.7826 201.56 83.6571 201.443 83.5878L116.376 29.9108C116.248 29.8329 116.087 29.8329 115.959 29.9108L30.9235 83.5485C30.8085 83.6185 30.7395 83.7444 30.7424 83.8789V162.183ZM200.852 161.79H31.5064V84.0993L116.171 30.6977L200.852 84.0993V161.79Z" fill="#231F20"/>
<path d="M136.887 62.8C139.714 58.1341 140.431 52.4612 140.171 47.0163C139.983 41.0594 138.41 35.2278 135.579 29.9817C134.429 27.7287 132.741 25.7938 130.664 24.348C128.112 22.7744 126.372 23.8366 123.875 23.4117C121.764 23.0498 119.558 21.5469 117.219 21.1614C111.822 20.2397 106.277 21.3983 101.702 24.4031C93.6995 29.8086 90.0054 40.1395 81.7351 45.1594C73.6301 50.0535 63.2567 48.5821 54.1671 51.2888C50.3304 52.4374 46.7557 54.3245 43.644 56.8438C41.4944 58.4877 39.7353 60.5861 38.4928 62.9888C36.3582 67.4422 36.9175 72.7454 38.4928 77.4427C40.0681 82.2738 42.7303 86.8846 46.8577 89.8824C50.3155 92.3766 54.5609 93.5254 58.7591 94.2807C64.4696 95.3115 70.3849 95.697 76.0876 94.4617C80.2963 93.6132 84.219 91.7068 87.4849 88.9225C88.887 87.6714 89.6589 85.964 90.9664 84.7208C92.7701 83.0134 95.582 81.967 97.693 80.6608C100.993 78.6072 104.301 76.4199 108.066 75.4442C117.629 72.9579 131.121 72.2812 136.887 62.8Z" fill="white"/>
<path fill-rule="evenodd" clip-rule="evenodd" d="M58.673 94.6662C61.904 95.2769 65.1832 95.5981 68.4714 95.6261C71.0535 95.6557 73.6311 95.4051 76.159 94.8786C80.4537 94.0142 84.4526 92.0575 87.769 89.1978C88.4876 88.5164 89.127 87.7562 89.6751 86.9317C90.1386 86.2364 90.666 85.5858 91.2504 84.9883C92.5419 83.9 93.9754 82.9921 95.5117 82.2895C96.3387 81.8646 97.1263 81.4319 97.914 80.9676L98.7017 80.4562L98.7662 80.416C101.731 78.5717 104.783 76.6732 108.154 75.8061C109.96 75.3343 111.889 74.9408 113.931 74.5241L114.242 74.4606L114.243 74.4604C122.797 72.7137 132.469 70.7387 137.194 63.0124C139.746 58.8343 140.841 53.484 140.534 47.032C140.353 41.0155 138.764 35.125 135.895 29.8321C134.722 27.5243 132.989 25.5469 130.854 24.0804C129.508 23.2502 127.914 22.9187 126.348 23.1441C125.546 23.2191 124.737 23.2006 123.938 23.089C122.882 22.8515 121.855 22.5006 120.874 22.0426C119.722 21.4817 118.505 21.0642 117.251 20.7994C111.767 19.8771 106.138 21.0665 101.498 24.1276C97.5911 26.7871 94.661 30.6347 91.8333 34.3563L91.8053 34.3931C88.8288 38.3079 85.7552 42.3505 81.5465 44.8919C76.7103 47.811 71.1573 48.4247 65.2814 49.0699C61.4959 49.3784 57.7452 50.0208 54.0731 50.9897C50.1929 52.1505 46.5778 54.0591 43.4319 56.6076C41.2322 58.2856 39.4392 60.437 38.1861 62.9022C35.768 67.8907 36.8392 73.6895 38.1309 77.6236C39.9425 83.1314 42.8648 87.514 46.6219 90.2128C50.379 92.9116 55.034 94.0131 58.673 94.6662ZM101.907 24.765C105.377 22.4559 109.458 21.234 113.628 21.2557C114.83 21.2649 116.028 21.3755 117.212 21.5862C118.398 21.8337 119.551 22.222 120.646 22.7428C121.672 23.2272 122.75 23.5941 123.859 23.8365C124.713 23.9566 125.577 23.9803 126.435 23.9073C127.848 23.6719 129.299 23.9511 130.523 24.6941C132.552 26.1049 134.198 27.9976 135.312 30.2019C138.127 35.3953 139.684 41.1759 139.857 47.0792C140.156 53.3895 139.069 58.6298 136.627 62.6583C132.09 70.1174 122.56 72.0608 114.14 73.7682C111.958 74.2088 109.941 74.6259 108.02 75.1216C104.533 76.0059 101.429 77.9412 98.427 79.8124L98.3787 79.8425L97.5438 80.3618C96.8113 80.8103 96.0236 81.2194 95.1808 81.6522C93.5832 82.3843 92.0937 83.3321 90.7542 84.469C90.1307 85.0956 89.5689 85.7807 89.0765 86.5147C88.5572 87.2956 87.9522 88.0161 87.2728 88.6628C84.0499 91.4372 80.1649 93.3343 75.9935 94.1705C71.0707 95.2406 65.4626 95.1776 58.8305 93.9895C55.2703 93.3443 50.6862 92.2507 47.0708 89.6463C43.4555 87.0419 40.6121 82.8088 38.8477 77.3876C37.5796 73.5715 36.5635 67.9929 38.8477 63.2248C40.0633 60.8671 41.791 58.8106 43.9045 57.2056C46.9775 54.7101 50.5095 52.8391 54.3015 51.6979C57.9294 50.7406 61.6356 50.1087 65.3759 49.8095L65.43 49.8035C71.0923 49.1759 76.9624 48.5253 81.9167 45.5292C86.2472 42.9227 89.3699 38.8121 92.3883 34.8389L92.4083 34.8127L92.4491 34.759C95.2326 31.1012 98.1059 27.3253 101.907 24.765Z" fill="#231F20"/>
<path d="M169.024 55.0891L164.881 70.6682L174.86 72.4464L180.547 51.6349C180.547 51.6349 171.678 44.8525 170.308 44.8053C168.937 44.7581 169.024 55.0891 169.024 55.0891Z" fill="white"/>
<path fill-rule="evenodd" clip-rule="evenodd" d="M174.789 72.8398H174.86C175.026 72.8376 175.172 72.73 175.222 72.5723L180.917 51.7609C180.957 51.6061 180.902 51.4422 180.775 51.3439C179.271 50.203 171.725 44.4828 170.315 44.4356C170.119 44.4279 169.93 44.5054 169.796 44.648C168.63 45.7732 168.63 53.4211 168.63 55.0891L164.518 70.5974C164.487 70.7032 164.503 70.817 164.562 70.9102C164.621 71.0034 164.717 71.0671 164.825 71.0852L174.789 72.8398ZM174.592 71.9979L165.408 70.3771L169.441 55.215C169.445 55.1811 169.445 55.1467 169.441 55.1127C169.41 50.7065 169.756 45.6158 170.315 45.1988C171.072 45.2224 175.845 48.5428 180.106 51.7845L174.592 71.9979Z" fill="#231F20"/>
<path d="M158.24 44.8997C158.24 44.8997 159.65 48.047 161.682 48.5585C163.714 49.0699 168.133 46.8904 168.645 47.1737C169.157 47.4569 180.814 56.1749 181.949 56.4345C183.083 56.6942 185.17 53.9482 186.06 50.6829C186.06 50.6829 174.718 42.9563 173.978 42.138C173.237 41.3197 172.355 36.4257 171.252 34.6317L158.24 44.8997Z" fill="white"/>
<path fill-rule="evenodd" clip-rule="evenodd" d="M181.823 56.8516C181.904 56.8593 181.986 56.8593 182.067 56.8516C183.603 56.8516 185.612 53.7201 186.423 50.856C186.471 50.6952 186.407 50.5221 186.265 50.4312C181.721 47.3311 174.774 42.5157 174.254 41.9414C173.768 40.969 173.403 39.9412 173.167 38.8806C172.803 37.3668 172.275 35.8972 171.591 34.498C171.529 34.4048 171.433 34.3398 171.324 34.317C171.212 34.2988 171.098 34.3273 171.009 34.3957L158.02 44.6244C157.878 44.7334 157.832 44.9274 157.91 45.0886C157.911 45.0908 157.912 45.0938 157.914 45.0976C158.02 45.3255 159.458 48.4028 161.612 48.9755C162.975 49.3355 165.21 48.5982 166.854 48.0561L166.881 48.0471C167.069 47.9816 167.271 47.9021 167.466 47.8253C167.927 47.6439 168.351 47.4772 168.457 47.5435C168.606 47.6379 169.819 48.5113 171.213 49.5342C177.396 54.0427 181.114 56.6785 181.823 56.8516ZM168.835 46.8275C168.735 46.7767 168.624 46.7523 168.512 46.7567C167.855 46.8352 167.212 46.9992 166.598 47.2445L166.58 47.2503C165.123 47.7303 162.923 48.455 161.777 48.1572C160.304 47.7874 159.115 45.7496 158.729 45.01L171.103 35.2298C171.622 36.4639 172.051 37.734 172.387 39.0301C172.915 40.8241 173.253 41.9571 173.655 42.3977C174.364 43.1924 183.658 49.5499 185.572 50.8482C184.619 54.082 182.745 56.2536 182.004 56.0569C181.37 55.8885 176.559 52.4013 173.211 49.9751C172.65 49.5685 172.13 49.1918 171.678 48.8654C171.463 48.7093 171.262 48.5631 171.075 48.4266C169.644 47.3863 168.981 46.904 168.835 46.8275Z" fill="#231F20"/>
<path d="M170.639 37.5666C170.545 38.3984 170.702 39.2391 171.087 39.9821C171.725 41.123 174.553 42.6416 174.553 42.6416L176.522 38.7075L172.663 35.9221L170.639 37.5666Z" fill="#231F20"/>
<path fill-rule="evenodd" clip-rule="evenodd" d="M174.372 42.9878C174.427 43.0191 174.489 43.0354 174.553 43.035C174.594 43.0325 174.634 43.0218 174.671 43.0035C174.773 42.9726 174.858 42.9017 174.907 42.8068L176.876 38.8727C176.958 38.701 176.905 38.4957 176.75 38.3849L172.899 35.5995C172.756 35.4865 172.553 35.4865 172.41 35.5995L170.386 37.2676C170.312 37.3289 170.264 37.4161 170.252 37.5115C170.148 38.4276 170.321 39.3538 170.748 40.1709C171.418 41.3748 174.064 42.8304 174.372 42.9878ZM171.434 39.7933C171.112 39.1728 170.968 38.476 171.016 37.779L172.678 36.4021L176.018 38.8176L174.387 42.1065C173.474 41.5794 171.843 40.5801 171.434 39.7933Z" fill="#231F20"/>
<path d="M182.988 48.5978C182.988 48.5978 184.02 45.3482 182.201 45.12C182.167 44.5384 181.832 44.0164 181.317 43.7431C180.802 43.4698 180.182 43.4847 179.68 43.7824C179.68 43.7824 179.097 41.3669 177.191 41.8547C175.285 42.3426 173.773 46.8983 174.041 48.047C174.308 49.1958 175.789 48.4955 176.537 47.4176C176.537 47.4176 175.569 49.2115 176.215 49.6836C177.16 50.376 178.152 49.1486 178.956 48.2516C178.956 48.2516 177.766 50.3524 179.515 50.5412C180.862 50.6907 182.114 47.9762 182.114 47.9762L182.988 48.5978Z" fill="white"/>
<path fill-rule="evenodd" clip-rule="evenodd" d="M179.437 50.9426H179.586C180.791 50.9426 181.8 49.3532 182.178 48.5507L182.713 48.9205C182.818 48.9908 182.949 49.0082 183.068 48.9677C183.186 48.9301 183.278 48.8355 183.312 48.7159C183.407 48.4877 184.013 46.4971 183.312 45.4034C183.122 45.1021 182.827 44.8809 182.485 44.7818C182.343 44.1959 181.983 43.6864 181.477 43.3576C180.987 43.11 180.417 43.0758 179.901 43.2632C179.673 42.6243 179.248 42.0736 178.688 41.6896C178.2 41.3965 177.611 41.3222 177.066 41.485C174.892 42.0436 173.325 46.8118 173.616 48.1415C173.678 48.5786 174.01 48.9289 174.443 49.0149C174.841 49.0701 175.245 48.9837 175.585 48.771C175.457 49.2166 175.595 49.6962 175.94 50.0063C176.719 50.5807 177.475 50.2187 178.129 49.6443C178.134 50.3626 178.718 50.9426 179.437 50.9426ZM179.153 47.9369C179.086 47.8842 179.002 47.8564 178.917 47.8583C178.807 47.8585 178.701 47.904 178.625 47.9841L178.46 48.173C177.609 49.1172 176.956 49.7624 176.404 49.3611C176.223 49.2273 176.444 48.3776 176.845 47.5907C176.939 47.4069 176.877 47.1825 176.704 47.0714C176.526 46.9633 176.295 47.0115 176.176 47.1816C175.839 47.7532 175.258 48.1389 174.601 48.2281C174.545 48.2202 174.443 48.1966 174.388 47.9527C174.175 46.9534 175.585 42.6574 177.263 42.2325C177.602 42.1262 177.97 42.1661 178.279 42.3426C178.772 42.7252 179.122 43.2631 179.271 43.8691C179.302 43.982 179.379 44.0765 179.484 44.1287C179.589 44.1762 179.71 44.1762 179.815 44.1287C180.21 43.8995 180.69 43.8646 181.114 44.0343C181.48 44.3054 181.724 44.7098 181.792 45.1595C181.818 45.3345 181.955 45.4719 182.131 45.4978C182.35 45.5136 182.551 45.6297 182.674 45.8125C182.932 46.496 182.957 47.2457 182.745 47.9448L182.304 47.6379C182.208 47.5691 182.086 47.5487 181.973 47.5829C181.862 47.6144 181.771 47.6917 181.721 47.7953C181.351 48.5821 180.311 50.2423 179.523 50.1558C179.09 50.1086 178.98 49.9355 178.98 49.8804C178.791 49.5106 179.09 48.7552 179.263 48.4484C179.358 48.2741 179.311 48.0568 179.153 47.9369Z" fill="#231F20"/>
<path d="M174.569 38.8491C174.569 38.8491 173.49 36.9764 172.355 38.6209C171.221 40.2653 169.858 43.3418 171.749 43.6723C173.639 44.0028 175.057 40.4778 174.569 38.8491Z" fill="white"/>
<path fill-rule="evenodd" clip-rule="evenodd" d="M171.686 44.0736C171.788 44.0814 171.891 44.0814 171.993 44.0736C172.67 44.0419 173.301 43.7209 173.726 43.1924C174.764 41.9601 175.21 40.3357 174.947 38.7468L174.907 38.6603C174.906 38.6586 174.905 38.6567 174.904 38.6545C174.825 38.5265 174.255 37.5974 173.403 37.5587C172.828 37.5806 172.307 37.9035 172.032 38.4085C171.221 39.573 170 41.9098 170.551 43.2238C170.75 43.6891 171.183 44.0131 171.686 44.0736ZM172.678 38.8255C172.836 38.5973 173.088 38.3219 173.348 38.3219H173.363C173.718 38.3377 174.072 38.7862 174.198 38.9907C174.368 40.3049 173.983 41.6305 173.135 42.6495C172.829 43.0689 172.33 43.3033 171.812 43.271C171.577 43.2534 171.371 43.1083 171.276 42.8934C170.945 42.0987 171.725 40.2024 172.678 38.8255Z" fill="#231F20"/>
<path d="M169.016 56.1434C169.016 56.1434 167.771 50.2029 167.653 49.1407C167.456 47.3389 167.882 44.5221 169.465 44.0815C171.048 43.6409 174.671 43.2238 174.073 44.8132C173.529 46.261 170.355 46.5364 170.355 46.5364C170.355 46.5364 172.545 48.7395 172.214 50.9347" fill="white"/>
<path d="M169.016 56.5368C168.831 56.5377 168.671 56.41 168.63 56.23C168.583 55.986 167.386 50.2501 167.267 49.1486C167.063 47.3074 167.456 44.1995 169.363 43.6408C170.355 43.3654 173.388 42.7989 174.278 43.7667C174.552 44.0722 174.617 44.5122 174.443 44.884C173.994 46.0957 172.182 46.5757 171.135 46.7645C171.796 47.5985 172.86 49.243 172.6 50.9268C172.579 51.0673 172.484 51.186 172.352 51.238C172.219 51.29 172.069 51.2675 171.958 51.179C171.847 51.0904 171.791 50.9493 171.812 50.8088C172.112 48.8338 170.087 46.7645 170.071 46.7488C169.964 46.6386 169.927 46.4774 169.977 46.3317C170.031 46.1894 170.163 46.0912 170.316 46.08C171.103 46.0091 173.325 45.6079 173.695 44.6086C173.781 44.3962 173.695 44.3332 173.695 44.3017C173.277 43.8375 171.095 43.9791 169.567 44.3962C168.284 44.7502 167.858 47.3153 168.047 49.0305C168.165 50.0613 169.394 55.9467 169.402 56.0018C169.425 56.1042 169.405 56.2117 169.347 56.2993C169.29 56.387 169.198 56.4472 169.095 56.466L169.016 56.5368Z" fill="#231F20"/>
<path d="M192.276 33.6167C192.276 33.6167 179.153 32.3184 173.797 35.4185C172.451 36.2213 171.162 37.1151 169.938 38.0937C167.031 40.3676 164.298 42.9484 162.171 44.3883C157.95 47.2208 153.869 47.7952 151.089 43.2867C148.726 39.4392 150.104 37.6138 153.302 34.1911C154.878 32.4994 158.217 29.7062 161.092 26.614C162.792 24.895 164.225 22.9326 165.346 20.7915C167.772 15.6929 167.086 7.87976 167.086 7.87976L192.276 33.6167Z" fill="white"/>
<path fill-rule="evenodd" clip-rule="evenodd" d="M155.011 46.8433C155.425 46.9361 155.848 46.981 156.271 46.977C158.075 46.977 160.123 46.2217 162.407 44.711C163.91 43.6379 165.356 42.4876 166.739 41.2647C167.834 40.3284 169.008 39.3527 170.197 38.4164C171.406 37.4489 172.679 36.5655 174.009 35.7727C178.915 32.9202 190.759 33.8887 192.124 34.0003C192.201 34.0066 192.244 34.0102 192.252 34.0102C192.417 34.023 192.574 33.9322 192.645 33.782C192.715 33.6347 192.687 33.4594 192.574 33.3414L167.369 7.58087C167.255 7.45704 167.073 7.42198 166.921 7.49432C166.77 7.56554 166.679 7.72199 166.692 7.88773C166.7 7.96642 167.354 15.6773 164.991 20.6342C163.891 22.7396 162.482 24.6679 160.808 26.3544C159.146 28.1012 157.374 29.785 155.799 31.2485C154.665 32.2949 153.688 33.2077 153.011 33.9315C149.781 37.3935 148.214 39.3842 150.758 43.5071C151.646 45.1646 153.189 46.3746 155.011 46.8433ZM165.708 20.9726C167.629 16.889 167.637 11.2396 167.543 8.87913L191.283 33.1683C188.022 32.9244 178.192 32.468 173.631 35.1196C172.258 35.9333 170.942 36.8403 169.693 37.8342C168.661 38.641 167.659 39.4829 166.681 40.3045C166.524 40.4363 166.367 40.5676 166.212 40.6982C164.853 41.9014 163.43 43.0308 161.95 44.0815C159.328 45.8361 157.051 46.5207 155.177 46.1115C153.566 45.6771 152.208 44.5943 151.427 43.1216C149.175 39.4472 150.435 37.8106 153.585 34.4666C154.225 33.7815 155.174 32.9006 156.262 31.8902L156.334 31.8229L156.363 31.7961C157.939 30.3314 159.716 28.6804 161.383 26.8895C163.111 25.1425 164.568 23.1483 165.708 20.9726Z" fill="#231F20"/>
<path d="M170.638 37.5666C167.732 39.8406 164.219 42.8541 162.171 44.3805C157.492 47.874 154.53 48.2438 151.474 43.9242C148.324 39.4865 150.104 37.6296 153.302 34.199C154.877 32.5074 158.217 29.7142 161.092 26.6219C161.092 26.6219 161.273 29.84 164.479 33.7663C166.052 35.6811 168.219 37.0181 170.638 37.5666V37.5666Z" fill="#231F20"/>
<path fill-rule="evenodd" clip-rule="evenodd" d="M155.515 47.4176C155.754 47.4561 155.997 47.4745 156.24 47.4726C157.925 47.4726 159.894 46.5914 162.407 44.6952C163.441 43.9257 164.838 42.781 166.335 41.5532C166.446 41.4627 166.557 41.3717 166.668 41.2804C166.837 41.1423 167.007 41.0037 167.177 40.8648C168.432 39.8403 169.703 38.8028 170.882 37.8813C171.001 37.781 171.055 37.6242 171.024 37.4721C170.982 37.3235 170.86 37.2109 170.709 37.181C168.385 36.6413 166.304 35.3528 164.786 33.5144C161.714 29.7456 161.485 26.5983 161.485 26.5983C161.476 26.4414 161.374 26.3052 161.225 26.2521C161.079 26.1961 160.912 26.2369 160.808 26.3544C159.146 28.1011 157.374 29.7849 155.798 31.2484C155.706 31.3335 155.615 31.4176 155.525 31.5007C154.507 32.4388 153.629 33.248 152.971 33.9708L152.96 33.9823C149.769 37.406 147.839 39.4759 151.151 44.1523C152.553 46.1351 153.94 47.1737 155.515 47.4176ZM156.334 31.8228C157.744 30.5166 159.319 29.0532 160.824 27.4795C161.409 29.8895 162.556 32.1271 164.171 34.0101C165.628 35.7788 167.573 37.0811 169.764 37.7554C168.598 38.6839 167.369 39.691 166.172 40.6745C165.871 40.9206 165.574 41.1654 165.281 41.4058C164.003 42.4568 162.825 43.4254 161.934 44.0657C159.201 46.1036 157.264 46.8904 155.633 46.6386C154.286 46.4262 153.065 45.4899 151.797 43.6959C148.867 39.5448 150.426 37.8667 153.56 34.4937L153.585 34.4665C154.225 33.7814 155.173 32.9005 156.262 31.8901L156.334 31.8228Z" fill="#231F20"/>
<path d="M195.914 32.5073C192.976 35.1432 186.462 32.9479 180.121 27.5897C178.497 26.2191 176.97 24.7362 175.553 23.152C174.16 21.5973 172.876 19.9489 171.709 18.2186C166.983 11.2789 165.51 4.55942 168.472 1.90783C172.127 -1.37322 181.248 2.81267 188.833 11.2631C196.418 19.7136 199.584 29.2184 195.914 32.5073Z" fill="#7C5DFA"/>
<path fill-rule="evenodd" clip-rule="evenodd" d="M167.92 1.33345C168.991 0.423529 170.367 -0.048605 171.772 0.0115924C176.624 0.0115924 183.524 4.22109 189.4 10.7045C192.864 14.4189 195.559 18.78 197.331 23.5376C198.804 27.8651 198.466 31.2484 196.441 33.0581C195.367 33.9869 193.978 34.471 192.558 34.4114C189.037 34.4114 184.311 32.1297 179.585 28.1955C176.318 25.4097 173.441 22.1968 171.032 18.6435C165.967 11.1687 164.715 4.20535 167.92 1.33345ZM188.809 11.271C182.98 4.77973 176.238 0.798414 171.772 0.798414C170.572 0.746048 169.396 1.14151 168.472 1.90783C165.51 4.55942 166.983 11.2789 171.709 18.2186C172.87 19.9512 174.149 21.6021 175.537 23.1599C176.954 24.7441 178.48 26.227 180.105 27.5976C184.65 31.4215 189.242 33.6325 192.574 33.6325C193.783 33.6894 194.969 33.2906 195.898 32.5152C199.584 29.2263 196.402 19.7215 188.809 11.271Z" fill="#231F20"/>
<path d="M185.359 21.0433L180.121 27.5896C178.496 26.219 176.97 24.7362 175.553 23.152C174.16 21.5972 172.876 19.9489 171.709 18.2186L179.286 13.5685L185.359 21.0433Z" fill="white"/>
<ellipse cx="182.308" cy="17.3335" rx="2.24386" ry="4.81741" transform="rotate(-39.4 182.308 17.3335)" fill="#231F20"/>
<path fill-rule="evenodd" clip-rule="evenodd" d="M180.255 18.9898C181.649 20.6893 183.319 21.6886 184.556 21.6886C184.928 21.6944 185.291 21.5753 185.588 21.3502C186.73 20.4061 186.17 17.904 184.312 15.6458C183.562 14.6736 182.614 13.8716 181.531 13.2932C180.476 12.8211 179.578 12.8132 178.987 13.2932C178.396 13.7731 178.231 14.6623 178.522 15.7953C178.871 16.9691 179.461 18.0571 180.255 18.9898ZM179.483 13.899C179.649 13.7759 179.852 13.7147 180.058 13.7259C180.443 13.75 180.819 13.8546 181.161 14.0328C182.152 14.5491 183.025 15.2675 183.721 16.1415C185.375 18.1557 185.777 20.1779 185.099 20.7365C184.422 21.2952 182.516 20.5083 180.862 18.4941C180.138 17.6508 179.601 16.664 179.286 15.5986C179.082 14.796 179.152 14.1744 179.483 13.899Z" fill="#231F20"/>
<path d="M178.916 48.6451C178.847 48.6455 178.779 48.6264 178.72 48.59C178.628 48.5389 178.562 48.4532 178.535 48.3524C178.509 48.2516 178.524 48.1443 178.578 48.0549C179.067 47.2544 179.672 46.5306 180.374 45.9069C180.478 45.797 180.635 45.7565 180.78 45.8025C180.924 45.8486 181.029 45.9731 181.05 46.1229C181.071 46.2727 181.004 46.4212 180.878 46.5049C180.266 47.0803 179.736 47.7369 179.302 48.4562C179.221 48.5884 179.071 48.6619 178.916 48.6451V48.6451Z" fill="#231F20"/>
<path d="M176.498 47.8111H176.435C176.333 47.7902 176.243 47.7296 176.185 47.6425C176.128 47.5555 176.107 47.4491 176.128 47.3468C176.413 46.2239 177.078 45.2341 178.011 44.5457C178.185 44.4154 178.431 44.4506 178.562 44.6244C178.692 44.7982 178.657 45.0448 178.483 45.1752C177.712 45.7498 177.157 46.5676 176.908 47.4963C176.866 47.6867 176.693 47.8194 176.498 47.8111Z" fill="#231F20"/>
<path d="M182.075 48.3696C181.996 48.3702 181.918 48.3454 181.854 48.2988C181.768 48.2386 181.71 48.1465 181.692 48.0431C181.674 47.9397 181.699 47.8335 181.76 47.7481L182.295 46.9612C182.426 46.7898 182.667 46.7485 182.847 46.8668C183.022 46.9947 183.064 47.2386 182.941 47.4176L182.398 48.2044C182.325 48.3109 182.204 48.3731 182.075 48.3696V48.3696Z" fill="#231F20"/>
<path d="M157.216 46.678C157.131 46.6786 157.048 46.6509 156.98 46.5993C153.498 43.9556 151.34 40.7453 150.915 37.5666V37.48C150.864 37.3086 150.935 37.1243 151.088 37.0315C151.176 36.9739 151.284 36.9547 151.387 36.9785C151.489 37.0022 151.578 37.0669 151.632 37.1574C151.678 37.2533 151.705 37.3577 151.71 37.4643C152.112 40.4385 154.152 43.4599 157.476 45.9698C157.613 46.0723 157.668 46.2513 157.612 46.4128C157.556 46.5743 157.403 46.6814 157.232 46.678H157.216Z" fill="white"/>
<path d="M155.271 34.1203C155.162 34.1188 155.059 34.07 154.988 33.9865C154.914 33.914 154.872 33.8148 154.872 33.7112C154.872 33.6075 154.914 33.5083 154.988 33.4358L159.225 29.5017C159.297 29.4256 159.397 29.3824 159.501 29.3824C159.606 29.3824 159.705 29.4256 159.777 29.5017C159.851 29.5742 159.893 29.6734 159.893 29.7771C159.893 29.8807 159.851 29.9799 159.777 30.0524L155.539 33.9865C155.472 34.066 155.375 34.1144 155.271 34.1203Z" fill="white"/>
<path d="M155.854 35.0645C155.744 35.0617 155.64 35.0166 155.563 34.9386C155.411 34.7829 155.411 34.5356 155.563 34.3799L159.8 30.4458C159.953 30.2959 160.198 30.2959 160.351 30.4458C160.426 30.5197 160.468 30.6203 160.468 30.7252C160.468 30.8301 160.426 30.9306 160.351 31.0045L156.122 34.9386C156.051 35.0118 155.956 35.0566 155.854 35.0645V35.0645Z" fill="white"/>
<path d="M156.523 36.1503C156.415 36.1529 156.311 36.1067 156.24 36.0244C156.166 35.9519 156.124 35.8526 156.124 35.749C156.124 35.6454 156.166 35.5461 156.24 35.4736L160.477 31.5395C160.549 31.4634 160.649 31.4203 160.753 31.4203C160.858 31.4203 160.957 31.4634 161.029 31.5395C161.103 31.612 161.145 31.7113 161.145 31.8149C161.145 31.9185 161.103 32.0178 161.029 32.0903L156.791 36.0244C156.723 36.1017 156.626 36.1473 156.523 36.1503V36.1503Z" fill="white"/>
<path d="M86.4223 96.8379L84.4453 140.444C84.4453 140.444 111.423 140.766 126.939 134.291C128.211 130.134 129.747 126.063 131.539 122.103C133.816 117.508 143.59 110.733 140.519 93.1399C140.519 93.1399 163.55 107.696 170.04 101.008C176.53 94.3201 179.775 63.0833 179.775 63.0833L166.291 58.7557L160.163 78.0171C160.163 78.0171 121.3 59.2357 112.242 56.8595C108.878 55.9783 98.4262 61.5332 86.446 69.2205" fill="#7C5DFA"/>
<path d="M111.406 69.9364C111.406 69.9364 117.652 89.3237 118.724 97.5302C119.795 105.737 119.952 119.302 119.952 119.302C119.952 119.302 129.837 89.0562 128.617 70.377L111.406 69.9364Z" fill="#231F20"/>
<path fill-rule="evenodd" clip-rule="evenodd" d="M119.905 119.656H119.953C120.107 119.659 120.246 119.56 120.291 119.412C120.386 119.136 130.176 88.8831 128.955 70.3534C128.947 70.1727 128.798 70.0306 128.617 70.0308L111.414 69.5902C111.302 69.5904 111.197 69.6435 111.13 69.7334C111.064 69.8233 111.043 69.9394 111.076 70.0466C111.076 70.0478 111.077 70.0497 111.078 70.0524C111.215 70.4814 117.328 89.5469 118.377 97.5853C119.433 105.674 119.606 119.184 119.606 119.317C119.608 119.489 119.735 119.632 119.905 119.656ZM119.07 97.483C118.102 90.0476 112.84 73.304 111.887 70.2983L128.286 70.7311C129.2 86.3338 122.41 110.072 120.26 117.154C120.165 112.991 119.858 103.667 119.07 97.483Z" fill="#231F20"/>
<path d="M79.9399 163.592H154.381L126.963 134.291L84.4689 140.443C84.4689 140.443 79.3806 151.947 79.8611 160.02C79.8926 160.972 79.9162 162.191 79.9399 163.592Z" fill="#231F20"/>
<path fill-rule="evenodd" clip-rule="evenodd" d="M79.9395 163.985H154.381H154.389C154.546 163.986 154.688 163.894 154.752 163.75C154.815 163.607 154.787 163.439 154.68 163.324L127.262 134.023C127.173 133.929 127.044 133.882 126.915 133.897L84.3818 140.05C84.2509 140.073 84.1393 140.158 84.0825 140.278C83.8699 140.758 78.9628 151.963 79.4432 160.043C79.4984 161.011 79.5456 162.278 79.5456 163.6C79.5456 163.703 79.5874 163.803 79.6615 163.875C79.7355 163.948 79.8358 163.987 79.9395 163.985ZM153.467 163.198H80.3412C80.3412 162.108 80.2947 161.07 80.2566 160.22C80.2532 160.144 80.2499 160.069 80.2467 159.996C79.8056 152.686 84.0668 142.371 84.7363 140.798L126.813 134.708L153.467 163.198Z" fill="#231F20"/>
<path d="M126.475 59.511L128.609 70.377C128.609 70.377 128.664 76.6716 121.686 76.0657C117.51 75.6741 113.734 73.4223 111.407 69.9364L108.579 50.9583C108.822 47.5027 108.541 44.0302 107.744 40.6588C115.77 38.9986 120.953 31.7362 120.953 31.7362C120.953 31.7362 124.505 35.3556 125.955 36.4571C127.121 37.2551 128.18 38.1991 129.105 39.2661C130.626 41.1466 131.074 43.7746 131.468 46.0957C131.964 48.8507 132.209 51.6448 132.201 54.4439C132.075 59.7549 126.475 59.511 126.475 59.511Z" fill="white"/>
<path fill-rule="evenodd" clip-rule="evenodd" d="M121.654 76.4671H122.592C124.189 76.5481 125.757 76.0193 126.979 74.9879C128.201 73.7564 128.891 72.0954 128.901 70.3614L126.845 59.9203C128.341 59.8711 129.777 59.3163 130.917 58.3466C131.962 57.3341 132.534 55.9294 132.492 54.4754C132.501 51.6551 132.253 48.8398 131.752 46.0643C131.374 43.7904 130.893 41.0523 129.318 39.0695C128.393 37.9861 127.334 37.0238 126.167 36.2054C125.106 35.41 122.869 33.1852 121.796 32.1176C121.436 31.7596 121.207 31.5317 121.197 31.5317C121.126 31.4523 121.02 31.4114 120.914 31.4216C120.807 31.4304 120.709 31.4849 120.646 31.5711C120.599 31.6419 115.455 38.7784 107.665 40.352C107.571 40.3721 107.489 40.4287 107.437 40.5094C107.383 40.5872 107.365 40.6851 107.39 40.7769C108.126 43.8295 108.407 46.9739 108.225 50.1086C108.193 50.4252 108.193 50.7441 108.225 51.0606C108.233 51.1551 111.052 70.0388 111.052 70.0388C111.061 70.0856 111.077 70.1307 111.1 70.1725C113.477 73.7644 117.361 76.0808 121.654 76.4671ZM121.717 75.7118C117.685 75.3144 114.037 73.1536 111.753 69.8106C108.957 51.0921 108.989 50.8954 108.989 50.8954C108.968 50.6336 108.968 50.3704 108.989 50.1086C109.171 47.0311 108.905 43.9436 108.201 40.9421C115.172 39.3685 119.89 33.7427 121.016 32.2871C121.875 33.184 124.513 35.812 125.742 36.7326C126.869 37.5171 127.893 38.4397 128.79 39.4786C130.242 41.2492 130.663 43.723 131.04 45.9307C131.051 45.9991 131.063 46.0673 131.075 46.1351C131.569 48.8691 131.814 51.6422 131.807 54.4204C131.85 55.671 131.374 56.8838 130.492 57.7722C129.363 58.6895 127.945 59.1774 126.49 59.1492C126.378 59.1402 126.269 59.1874 126.199 59.2751C126.131 59.3618 126.102 59.4731 126.12 59.5819L128.247 70.3771C128.21 71.8888 127.602 73.3305 126.546 74.4135C125.419 75.4521 123.797 75.8849 121.717 75.7118Z" fill="#231F20"/>
<path d="M127.427 64.8615C127.427 64.8615 123.048 65.8922 119.645 63.4924C116.242 61.0926 116.101 58.0476 116.101 58.0476C116.101 58.0476 121.488 60.3373 126.474 59.5111L127.427 64.8615Z" fill="#231F20"/>
<path fill-rule="evenodd" clip-rule="evenodd" d="M119.449 63.7756C121.129 64.8996 123.114 65.4793 125.136 65.4358C125.943 65.447 126.749 65.3678 127.538 65.1997C127.721 65.1603 127.84 64.9825 127.806 64.7984L126.845 59.4481C126.813 59.2623 126.638 59.1363 126.451 59.1648C122.025 59.9017 117.187 58.0715 116.383 57.7671C116.311 57.7399 116.271 57.7249 116.267 57.7249C116.157 57.6776 116.031 57.6926 115.936 57.7643C115.834 57.8283 115.776 57.9435 115.786 58.0632C115.786 58.2364 115.944 61.305 119.449 63.7756ZM119.874 63.2091C118.24 62.1299 117.065 60.4845 116.574 58.5904C118.039 59.1412 122.166 60.4631 126.223 59.9044L127.058 64.586C126.01 64.7827 122.592 65.1289 119.874 63.2091Z" fill="#231F20"/>
<path d="M120.661 40.9814C120.661 40.9814 125.159 45.545 124.497 46.6072C123.835 47.6694 121.394 47.5199 121.394 47.5199" fill="white"/>
<path d="M121.772 47.8739H121.37C121.278 47.8679 121.193 47.8254 121.132 47.756C121.071 47.6866 121.041 47.596 121.048 47.5041C121.06 47.3116 121.225 47.1646 121.418 47.1736C122.04 47.1736 123.781 47.1736 124.206 46.434C124.474 45.9934 122.709 43.5621 120.417 41.2331C120.283 41.0963 120.284 40.8761 120.421 40.7414C120.558 40.6067 120.779 40.6084 120.914 40.7453C122.324 42.1773 125.521 45.6315 124.797 46.8038C124.198 47.7559 122.552 47.8739 121.772 47.8739Z" fill="#231F20"/>
<ellipse cx="126.624" cy="42.3438" rx="0.614338" ry="1.14882" transform="rotate(-13.01 126.624 42.3438)" fill="#231F20"/>
<ellipse cx="116.59" cy="43.3625" rx="0.614338" ry="1.14882" transform="rotate(-13.01 116.59 43.3625)" fill="#231F20"/>
<path d="M111.154 44.6951C110.059 42.9248 107.499 42.6809 105.711 43.3969C104.498 43.8305 103.671 44.9587 103.624 46.2452C103.61 47.0175 103.749 47.7849 104.034 48.5034C104.509 49.8502 105.224 51.1003 106.144 52.1936C106.573 52.7654 107.139 53.2201 107.791 53.5154C108.63 53.8114 109.565 53.5686 110.154 52.9017" fill="white"/>
<path d="M108.531 54.0191C108.235 54.0188 107.941 53.9627 107.665 53.8538C106.958 53.5336 106.341 53.0445 105.869 52.4297C104.924 51.3023 104.187 50.0153 103.695 48.6293C103.394 47.8628 103.247 47.0448 103.262 46.2217C103.324 44.8007 104.238 43.5578 105.577 43.0744C107.547 42.2876 110.303 42.6023 111.461 44.5143C111.544 44.6817 111.485 44.8843 111.326 44.9821C111.167 45.0799 110.959 45.0409 110.847 44.8919C109.862 43.3183 107.539 43.0586 105.845 43.7353C104.764 44.1181 104.023 45.1166 103.971 46.261C103.96 46.9875 104.091 47.709 104.357 48.3854C104.819 49.6917 105.513 50.9043 106.404 51.9655C106.797 52.4879 107.314 52.9044 107.909 53.1772C108.621 53.4272 109.414 53.2183 109.91 52.65C109.994 52.5378 110.137 52.4849 110.274 52.5143C110.412 52.5437 110.52 52.6501 110.552 52.7871C110.583 52.9242 110.532 53.067 110.422 53.1536C109.932 53.6825 109.252 53.9941 108.531 54.0191V54.0191Z" fill="#231F20"/>
<path d="M125.072 48.9362L119.803 49.4476C119.803 49.4476 120.898 57.5833 123.268 57.363C125.639 57.1427 125.647 51.2651 125.072 48.9362Z" fill="white"/>
<path fill-rule="evenodd" clip-rule="evenodd" d="M119.457 49.4948C119.638 50.8875 120.685 57.7171 123.166 57.7171L123.3 57.7092C123.877 57.6421 124.392 57.3182 124.702 56.828C126.01 54.9947 125.86 50.6593 125.411 48.8496C125.369 48.6835 125.212 48.5731 125.041 48.59L119.764 49.1014C119.669 49.108 119.582 49.1572 119.527 49.2352C119.465 49.3062 119.439 49.402 119.457 49.4948ZM123.166 57.0168C121.772 57.0168 120.638 52.7365 120.197 49.7623L124.805 49.3453C125.214 51.3281 125.167 54.9711 124.135 56.4267C123.939 56.7474 123.61 56.9639 123.237 57.0168H123.166Z" fill="#231F20"/>
<path d="M138.257 112.024C138.128 112.023 138.01 111.953 137.947 111.84C137.885 111.727 137.889 111.59 137.958 111.481C138.013 111.378 143.802 101.653 138.265 81.4004C138.219 81.2101 138.33 81.0168 138.517 80.9598C138.609 80.9334 138.708 80.9453 138.791 80.9927C138.874 81.0401 138.934 81.1191 138.958 81.2116C144.59 101.795 138.816 111.457 138.564 111.898C138.49 111.989 138.374 112.036 138.257 112.024Z" fill="#231F20"/>
<path d="M31.1367 83.8789L116.172 145.164L201.207 83.8789V184.419H31.1367V83.8789V83.8789Z" fill="white"/>
<path fill-rule="evenodd" clip-rule="evenodd" d="M30.7423 184.419C30.7423 184.636 30.9186 184.812 31.1361 184.812H201.207C201.422 184.808 201.596 184.635 201.601 184.419V83.879C201.6 83.7308 201.514 83.5962 201.38 83.5328C201.255 83.4544 201.096 83.4544 200.97 83.5328L116.171 144.645L31.3645 83.5328C31.2393 83.4544 31.0802 83.4544 30.955 83.5328C30.8227 83.597 30.7397 83.7321 30.7423 83.879V184.419ZM200.852 184.026H31.5063V84.65L115.935 145.479C116.074 145.58 116.261 145.58 116.4 145.479L200.852 84.65V184.026Z" fill="#231F20"/>
<path d="M31.1365 184.812C30.9922 184.813 30.8592 184.734 30.7899 184.608C30.6882 184.418 30.7542 184.182 30.9396 184.073L108.744 139.609C108.933 139.503 109.173 139.57 109.28 139.759C109.334 139.848 109.349 139.956 109.322 140.056C109.296 140.157 109.229 140.243 109.138 140.294L31.3255 184.757C31.2681 184.791 31.2031 184.81 31.1365 184.812Z" fill="#231F20"/>
<path d="M201.208 184.812C201.138 184.81 201.071 184.791 201.011 184.757L123.206 140.294C123.017 140.187 122.95 139.948 123.056 139.759C123.166 139.574 123.402 139.508 123.592 139.609L201.397 184.073C201.585 184.179 201.652 184.419 201.546 184.608C201.48 184.733 201.349 184.812 201.208 184.812V184.812Z" fill="#231F20"/>
<path d="M71.6768 138.303C71.6768 138.303 75.1189 147.257 75.9301 147.745C76.7414 148.233 86.3272 152.151 85.6419 153.985C84.9567 155.818 80.6403 153.583 80.6403 153.583C80.6403 153.583 86.8549 160.767 85.2166 162.034C83.5783 163.301 78.0647 165.874 75.8514 164.827C73.6381 163.781 62.603 150.121 60.2637 144.189" fill="white"/>
<path d="M77.1903 165.488C76.6767 165.504 76.166 165.407 75.6937 165.205C73.3308 164.08 62.2248 150.255 59.9012 144.354C59.8506 144.222 59.8743 144.073 59.9635 143.963C60.0528 143.853 60.1939 143.799 60.3337 143.821C60.4736 143.844 60.591 143.939 60.6416 144.071C63.0046 150.121 74.1105 163.584 76.0245 164.528C77.9385 165.472 83.3182 163.08 84.9881 161.782C85.0606 161.715 85.1032 161.621 85.1062 161.522C85.2559 159.949 81.7193 155.488 80.3803 153.898C80.2566 153.755 80.2521 153.545 80.3696 153.397C80.487 153.249 80.6932 153.205 80.8607 153.292C81.6484 153.701 83.9011 154.677 84.9093 154.292C85.0963 154.229 85.2443 154.084 85.311 153.898C85.5 153.387 84.2555 152.104 77.2375 148.855C76.3869 148.461 75.9379 148.249 75.7567 148.131C74.9061 147.588 72.165 140.601 71.3459 138.476C71.3075 138.378 71.3101 138.269 71.353 138.173C71.396 138.077 71.4757 138.002 71.5743 137.965C71.7765 137.89 72.0012 137.992 72.0784 138.193C73.7167 142.45 75.7016 147.084 76.1899 147.478C76.3238 147.564 76.8988 147.832 77.5683 148.139C83.2237 150.751 86.6106 152.679 86.0514 154.174C85.9047 154.571 85.5909 154.885 85.1928 155.031C84.1308 155.248 83.0273 155.121 82.0422 154.669C83.5624 156.565 86.075 159.972 85.9175 161.593C85.8917 161.901 85.7409 162.186 85.5 162.38C84.2004 163.364 80.0101 165.488 77.1903 165.488Z" fill="#231F20"/>
<path d="M86.4458 69.252C66.1873 82.2502 41.5494 101.378 39.47 105.847C36.1461 112.928 61.0045 148.54 61.0045 148.54L74.4655 140.011L62.1623 113.314L86.4221 96.8301" fill="#7C5DFA"/>
<path d="M70.8898 107.806C70.7712 107.809 70.6589 107.753 70.5905 107.657C70.48 107.493 70.5181 107.271 70.6771 107.153L97.9142 88.1041C97.9919 88.0468 98.0896 88.0237 98.1847 88.04C98.2799 88.0564 98.3643 88.1108 98.4183 88.1907C98.4727 88.2699 98.4933 88.3676 98.4756 88.462C98.4579 88.5565 98.4033 88.64 98.3238 88.6942L71.0946 107.743C71.0352 107.786 70.9631 107.808 70.8898 107.806V107.806Z" fill="#231F20"/>
<path d="M189.234 161.79L222.245 141.608L194.275 153.245L189.234 161.79V161.79Z" fill="#231F20"/>
<path fill-rule="evenodd" clip-rule="evenodd" d="M188.959 162.065C189.032 162.14 189.131 162.183 189.235 162.183C189.309 162.172 189.38 162.142 189.44 162.097L222.474 141.946C222.651 141.84 222.716 141.616 222.622 141.432C222.529 141.248 222.31 141.167 222.12 141.246L194.118 152.883C194.041 152.916 193.977 152.974 193.937 153.048L188.896 161.585C188.805 161.741 188.831 161.939 188.959 162.065ZM190.377 160.61L194.544 153.528L217.701 143.906L190.377 160.61Z" fill="#231F20"/>
<path d="M194.275 153.245L205.066 158.761L222.245 141.608L194.275 153.245V153.245Z" fill="white"/>
<path fill-rule="evenodd" clip-rule="evenodd" d="M204.901 159.075C204.952 159.103 205.009 159.117 205.067 159.115C205.164 159.121 205.259 159.083 205.327 159.013L222.505 141.86C222.63 141.742 222.65 141.552 222.553 141.411C222.458 141.271 222.277 141.215 222.12 141.278L194.134 152.915C194.006 152.973 193.921 153.097 193.914 153.237C193.906 153.377 193.984 153.507 194.11 153.568L204.901 159.075ZM204.996 158.32L195.127 153.284L220.702 142.639L204.996 158.32Z" fill="#231F20"/>
<path d="M222.245 141.608L186.706 150.09L178.625 145.471L222.245 141.608V141.608Z" fill="white"/>
<path fill-rule="evenodd" clip-rule="evenodd" d="M186.501 150.397C186.554 150.428 186.613 150.444 186.674 150.444L186.761 150.436L222.3 141.962C222.482 141.916 222.598 141.738 222.568 141.553C222.536 141.369 222.369 141.239 222.182 141.254L178.562 145.117C178.407 145.134 178.281 145.247 178.247 145.398C178.213 145.549 178.279 145.705 178.412 145.786L186.501 150.397ZM186.73 149.697L179.767 145.723L217.393 142.426L186.73 149.697Z" fill="#231F20"/>
<path d="M186.706 150.09L189.234 161.79L194.275 153.245L222.245 141.608L186.706 150.09V150.09Z" fill="white"/>
<path fill-rule="evenodd" clip-rule="evenodd" d="M189.179 162.152H189.235C189.373 162.163 189.506 162.092 189.573 161.971L194.551 153.536L222.387 141.946C222.574 141.885 222.676 141.685 222.615 141.498C222.555 141.311 222.353 141.209 222.166 141.27L186.627 149.744C186.535 149.764 186.455 149.821 186.405 149.901C186.355 149.98 186.338 150.077 186.36 150.169L188.88 161.877C188.914 162.021 189.033 162.13 189.179 162.152ZM189.392 160.806L187.132 150.35L217.968 142.993L194.134 152.907C194.063 152.939 194.003 152.991 193.96 153.056L189.392 160.806Z" fill="#231F20"/>
<path d="M181.949 163.419C181.776 163.415 181.625 163.299 181.578 163.132C181.531 162.966 181.598 162.789 181.744 162.695L183.059 161.853C183.242 161.733 183.487 161.784 183.607 161.967C183.726 162.15 183.675 162.394 183.492 162.514L182.161 163.364C182.096 163.4 182.023 163.419 181.949 163.419Z" fill="#D1D3D4"/>
<path fill-rule="evenodd" clip-rule="evenodd" d="M22.7581 139.777C22.8209 139.924 22.9672 140.016 23.1265 140.011C23.2475 140.013 23.3633 139.961 23.4416 139.869C24.1505 139.114 24.883 138.382 25.6706 137.69C25.7452 137.616 25.7871 137.515 25.7871 137.41C25.7871 137.305 25.7452 137.205 25.6706 137.131C25.5981 137.057 25.4987 137.015 25.395 137.015C25.2912 137.015 25.1919 137.057 25.1193 137.131C24.3316 137.839 23.5676 138.563 22.843 139.35C22.729 139.461 22.6953 139.631 22.7581 139.777ZM19.1882 144.889C19.0841 144.892 18.9827 144.856 18.9047 144.787C18.8192 144.728 18.7609 144.637 18.7432 144.535C18.7254 144.433 18.7495 144.328 18.8102 144.244C19.4088 143.378 20.0547 142.521 20.7163 141.702C20.8539 141.536 21.0998 141.512 21.2676 141.647C21.4366 141.782 21.4647 142.028 21.3307 142.198C20.6769 142.985 20.0468 143.843 19.456 144.692C19.3943 144.799 19.2869 144.872 19.1646 144.889H19.1882ZM15.7541 150.295C15.8274 150.322 15.9075 150.324 15.9825 150.302L15.9589 150.295C16.0881 150.292 16.2083 150.228 16.2818 150.121C16.7386 149.193 17.2349 148.272 17.7705 147.383C17.8787 147.194 17.8158 146.953 17.6287 146.84C17.5392 146.787 17.4318 146.771 17.3309 146.798C17.23 146.825 17.1442 146.891 17.0931 146.982C16.5496 147.895 16.0376 148.831 15.5729 149.767C15.5267 149.861 15.5199 149.97 15.5539 150.068C15.5879 150.167 15.6599 150.249 15.7541 150.295ZM13.6195 156.125C13.5805 156.132 13.5404 156.132 13.5014 156.125C13.4007 156.094 13.3166 156.024 13.2678 155.931C13.219 155.838 13.2095 155.729 13.2414 155.629C13.5486 154.638 13.9109 153.631 14.3127 152.639C14.4077 152.46 14.6234 152.383 14.8109 152.46C14.9984 152.537 15.0964 152.744 15.0373 152.938C14.6513 153.906 14.2969 154.89 13.9897 155.865C13.9375 156.024 13.7869 156.13 13.6195 156.125ZM12.1939 162.254H12.249C12.4517 162.251 12.6188 162.094 12.6349 161.892C12.7688 160.877 12.9579 159.847 13.1863 158.832C13.2098 158.729 13.1913 158.622 13.1351 158.533C13.0789 158.445 12.9896 158.382 12.887 158.359C12.6745 158.315 12.4652 158.448 12.4144 158.658C12.1781 159.721 11.9969 160.775 11.8552 161.806C11.827 162.022 11.9776 162.222 12.1939 162.254ZM176.515 166.637C176.338 166.635 176.184 166.516 176.138 166.346C176.092 166.175 176.166 165.995 176.318 165.905C177.334 165.323 178.247 164.796 179.035 164.331C179.125 164.277 179.233 164.26 179.335 164.285C179.437 164.31 179.525 164.375 179.579 164.465C179.688 164.653 179.629 164.893 179.445 165.008C178.657 165.48 177.735 166.015 176.711 166.582C176.658 166.612 176.599 166.631 176.538 166.637H176.515ZM11.5795 168.155C11.592 168.363 11.7647 168.526 11.9733 168.525H11.9969C12.1015 168.519 12.1993 168.472 12.2687 168.393C12.3382 168.315 12.3736 168.213 12.3671 168.108C12.3199 167.51 12.3199 166.896 12.3199 166.291V165.008C12.3241 164.904 12.2867 164.802 12.2158 164.725C12.1448 164.648 12.0463 164.603 11.9418 164.599C11.8368 164.592 11.7337 164.629 11.6563 164.7C11.579 164.772 11.5342 164.871 11.5322 164.977V166.291C11.5322 166.602 11.5441 166.916 11.556 167.229C11.5677 167.54 11.5795 167.849 11.5795 168.155ZM171.001 169.682C170.856 169.684 170.722 169.605 170.654 169.477C170.554 169.286 170.624 169.049 170.812 168.942C171.7 168.47 172.543 168.011 173.34 167.576L173.577 167.447C173.7 167.36 173.863 167.351 173.995 167.424C174.128 167.497 174.206 167.64 174.198 167.791C174.189 167.941 174.095 168.074 173.955 168.132C173.088 168.612 172.167 169.115 171.182 169.642C171.133 169.667 171.079 169.681 171.025 169.682H171.001ZM165.054 172.365C165.119 172.501 165.257 172.587 165.409 172.585C165.469 172.584 165.529 172.568 165.582 172.538C166.559 172.05 167.496 171.57 168.394 171.106C168.587 171.006 168.663 170.768 168.563 170.575C168.463 170.381 168.225 170.306 168.032 170.406C167.134 170.878 166.196 171.35 165.227 171.838C165.034 171.936 164.957 172.171 165.054 172.365ZM13.0288 174.686C12.8515 174.685 12.6968 174.566 12.6507 174.395C12.3623 173.372 12.1309 172.335 11.9576 171.287C11.9228 171.07 12.0709 170.865 12.2884 170.831C12.5059 170.796 12.7104 170.944 12.7452 171.161C12.9026 172.19 13.1182 173.209 13.3911 174.214C13.4203 174.314 13.4086 174.422 13.3583 174.513C13.3081 174.605 13.2236 174.673 13.1233 174.702L13.0288 174.686ZM159.415 175.119C159.478 175.257 159.617 175.343 159.769 175.339C159.826 175.34 159.882 175.329 159.934 175.308L162.778 173.938C162.974 173.843 163.055 173.607 162.959 173.411C162.863 173.216 162.627 173.135 162.431 173.23C161.518 173.679 160.572 174.135 159.596 174.592C159.502 174.637 159.43 174.719 159.396 174.818C159.362 174.916 159.368 175.025 159.415 175.119ZM154.043 177.967C153.889 177.965 153.749 177.877 153.68 177.739C153.636 177.643 153.633 177.534 153.671 177.435C153.71 177.337 153.787 177.259 153.885 177.22C154.096 177.124 154.306 177.03 154.515 176.936L154.516 176.935C155.273 176.595 156.016 176.26 156.744 175.921C156.942 175.83 157.177 175.916 157.268 176.114C157.36 176.312 157.273 176.546 157.075 176.637C156.138 177.07 155.185 177.503 154.2 177.936C154.151 177.958 154.097 177.969 154.043 177.967ZM15.4075 180.516C15.2627 180.518 15.1289 180.439 15.0609 180.312C14.5463 179.382 14.086 178.423 13.6825 177.44C13.6291 177.309 13.6495 177.16 13.7361 177.048C13.8226 176.937 13.9623 176.88 14.1023 176.899C14.2424 176.918 14.3616 177.01 14.415 177.141C14.8021 178.099 15.2494 179.032 15.7541 179.934C15.8545 180.126 15.7848 180.362 15.5965 180.469C15.5381 180.5 15.4734 180.516 15.4075 180.516ZM142.04 182.678C142.133 182.788 142.276 182.839 142.417 182.814V182.822C142.468 182.822 142.518 182.814 142.567 182.798L145.497 181.602C145.697 181.516 145.792 181.285 145.709 181.083C145.626 180.884 145.397 180.789 145.197 180.87L142.275 182.027C142.134 182.052 142.018 182.151 141.97 182.285C141.921 182.419 141.948 182.569 142.04 182.678ZM18.7472 185.489C18.8239 185.573 18.9324 185.622 19.0465 185.623V185.631C19.1546 185.636 19.26 185.596 19.3379 185.521C19.489 185.365 19.489 185.118 19.3379 184.962C18.646 184.195 17.9991 183.388 17.4003 182.546C17.3244 182.418 17.1828 182.344 17.0343 182.354C16.8858 182.365 16.7557 182.458 16.6982 182.595C16.6406 182.732 16.6654 182.89 16.7623 183.003C17.3768 183.868 18.0394 184.698 18.7472 185.489ZM130.586 187.118C130.369 187.153 130.164 187.005 130.13 186.787C130.095 186.57 130.243 186.366 130.46 186.331C131.461 185.993 132.453 185.654 133.43 185.308C133.636 185.24 133.86 185.348 133.934 185.552C133.969 185.649 133.964 185.756 133.92 185.849C133.875 185.942 133.795 186.014 133.698 186.048C132.713 186.394 131.721 186.74 130.712 187.078L130.586 187.118ZM23.6858 189.848C23.6004 189.849 23.5174 189.821 23.4495 189.769C22.5909 189.132 21.7639 188.455 20.992 187.755C20.9174 187.681 20.8755 187.581 20.8755 187.476C20.8755 187.371 20.9174 187.27 20.992 187.196C21.0646 187.122 21.1639 187.081 21.2676 187.081C21.3714 187.081 21.4707 187.122 21.5433 187.196C22.3108 187.892 23.1125 188.548 23.9457 189.163C24.1197 189.294 24.1549 189.54 24.0244 189.714C23.9394 189.81 23.8136 189.86 23.6858 189.848ZM118.197 190.58C118.242 190.745 118.392 190.86 118.563 190.863H118.559C118.602 190.868 118.645 190.863 118.685 190.847C119.701 190.564 120.709 190.265 121.709 189.966C121.811 189.939 121.897 189.871 121.947 189.779C121.998 189.687 122.009 189.578 121.977 189.478C121.913 189.273 121.695 189.157 121.489 189.219L118.472 190.092C118.263 190.153 118.141 190.369 118.197 190.58ZM28.8213 193.105C28.8773 193.135 28.9392 193.151 29.0024 193.153V193.168C29.2199 193.218 29.4368 193.083 29.4868 192.865C29.5369 192.648 29.4011 192.432 29.1836 192.382C28.2463 191.902 27.3326 191.39 26.4741 190.863C26.3859 190.805 26.278 190.786 26.1754 190.81C26.0727 190.834 25.9843 190.898 25.9306 190.989C25.875 191.078 25.8571 191.185 25.8808 191.287C25.9044 191.388 25.9677 191.477 26.0566 191.532C26.9388 192.09 27.8682 192.618 28.8213 193.105ZM106.342 193.995C106.202 194.01 106.063 193.949 105.98 193.835C105.896 193.721 105.879 193.571 105.936 193.442C105.993 193.312 106.115 193.223 106.256 193.208C107.28 192.972 108.296 192.736 109.312 192.484C109.523 192.435 109.734 192.565 109.784 192.775C109.81 192.877 109.794 192.986 109.739 193.076C109.685 193.166 109.596 193.231 109.493 193.255C108.477 193.499 107.461 193.743 106.429 193.971L106.342 193.995ZM34.8074 195.615C34.7658 195.623 34.7231 195.623 34.6814 195.615C33.6732 195.261 32.6729 194.876 31.7198 194.475C31.6235 194.433 31.5477 194.355 31.5093 194.257C31.4708 194.16 31.4729 194.051 31.515 193.955C31.6015 193.759 31.8291 193.668 32.027 193.751C32.9643 194.144 33.9489 194.537 34.9414 194.876C35.1589 194.913 35.3052 195.119 35.2682 195.336C35.2313 195.553 35.025 195.7 34.8074 195.663V195.615ZM93.6453 196.15C93.6765 196.339 93.8405 196.476 94.0313 196.473H94.1022L97.2055 195.914C97.4182 195.875 97.5589 195.671 97.5206 195.458C97.5034 195.355 97.4451 195.263 97.359 195.204C97.2729 195.145 97.1663 195.123 97.0638 195.143L93.9683 195.694C93.7548 195.734 93.6118 195.936 93.6453 196.15ZM40.8645 197.378H40.77C39.7224 197.134 38.6906 196.866 37.706 196.591C37.5001 196.527 37.3818 196.311 37.4382 196.103C37.4991 195.895 37.7178 195.775 37.9266 195.836C38.9033 196.111 39.9193 196.379 40.9512 196.623C41.0534 196.645 41.1422 196.708 41.1972 196.797C41.2521 196.886 41.2685 196.993 41.2426 197.095C41.1891 197.265 41.0274 197.378 40.8488 197.37L40.8645 197.378ZM87.4228 197.118C87.4537 197.312 87.6202 197.455 87.8167 197.457L87.8403 197.449L90.9909 196.985C91.0946 196.967 91.187 196.909 91.2476 196.824C91.3083 196.738 91.3321 196.632 91.3139 196.528C91.2985 196.425 91.2421 196.333 91.1575 196.272C91.073 196.211 90.9675 196.187 90.8649 196.206L87.7615 196.67C87.6566 196.683 87.5616 196.739 87.4979 196.823C87.4342 196.907 87.4072 197.014 87.4228 197.118ZM81.5706 198.243C81.4299 198.252 81.2953 198.185 81.2177 198.067C81.14 197.95 81.131 197.8 81.1941 197.674C81.2571 197.548 81.3826 197.465 81.5233 197.457C82.5735 197.341 83.6237 197.215 84.6739 197.079C84.8914 197.051 85.0907 197.204 85.1189 197.421C85.1472 197.638 84.9938 197.838 84.7763 197.866L81.6257 198.236L81.5706 198.243ZM46.9846 198.527H47.024C47.217 198.517 47.3758 198.372 47.4021 198.18C47.4179 198.077 47.3919 197.972 47.3298 197.888C47.2677 197.804 47.1747 197.748 47.0712 197.732C46.0237 197.582 44.984 197.409 43.9836 197.221C43.8429 197.194 43.6987 197.244 43.6052 197.353C43.5117 197.461 43.4831 197.611 43.5303 197.746C43.5775 197.881 43.6933 197.981 43.834 198.007C44.8816 198.196 45.9291 198.369 46.9846 198.527ZM75.3008 198.849C75.0833 198.849 74.907 198.673 74.907 198.456C74.907 198.239 75.0833 198.062 75.3008 198.062C76.3484 197.976 77.3881 197.881 78.4514 197.779C78.6666 197.765 78.8561 197.92 78.8847 198.133C78.8956 198.238 78.8644 198.342 78.7978 198.423C78.7312 198.505 78.6349 198.556 78.5302 198.566C77.48 198.666 76.4298 198.76 75.3796 198.849H75.3008ZM50.151 198.92C51.1828 199.03 52.2304 199.125 53.3016 199.203H53.3882C53.6058 199.203 53.7821 199.027 53.7821 198.81C53.7821 198.593 53.6058 198.417 53.3882 198.417C52.2934 198.338 51.2537 198.243 50.2376 198.141C50.1335 198.126 50.0275 198.154 49.9453 198.22C49.8631 198.285 49.812 198.382 49.8044 198.487C49.7814 198.702 49.9361 198.895 50.151 198.92ZM69.0153 199.258C68.8082 199.259 68.6378 199.095 68.6294 198.889C68.6229 198.784 68.6583 198.682 68.7278 198.603C68.7973 198.525 68.8951 198.478 68.9996 198.472C70.0472 198.424 71.0947 198.361 72.1502 198.291C72.2552 198.282 72.3592 198.317 72.4381 198.386C72.5169 198.456 72.5637 198.555 72.5677 198.66C72.5763 198.764 72.5427 198.867 72.4745 198.945C72.4063 199.024 72.3092 199.071 72.2053 199.077C71.1578 199.148 70.1102 199.211 69.0547 199.258H69.0153ZM56.7884 199.399C57.6942 199.434 58.6227 199.471 59.5635 199.471H59.5713C59.6792 199.475 59.7843 199.436 59.8628 199.362C59.9414 199.288 59.9868 199.185 59.9888 199.077C59.9888 198.973 59.9473 198.873 59.8735 198.799C59.7996 198.725 59.6994 198.684 59.595 198.684C58.5159 198.668 57.4683 198.637 56.4444 198.597C56.3399 198.593 56.238 198.631 56.1612 198.701C56.0843 198.772 56.0389 198.871 56.0348 198.975C56.0302 199.191 56.1972 199.372 56.4128 199.384L56.7884 199.399ZM62.3203 199.077C62.3244 199.293 62.4983 199.467 62.7141 199.471H62.722L64.6045 199.432L65.8726 199.392C65.9785 199.39 66.079 199.346 66.1516 199.269C66.2243 199.192 66.2628 199.089 66.2585 198.983C66.242 198.769 66.0634 198.605 65.849 198.605L64.5808 198.645L62.7062 198.684C62.4918 198.688 62.3202 198.863 62.3203 199.077ZM99.7969 195.002C99.837 195.183 99.9968 195.314 100.183 195.316L100.262 195.309L103.349 194.663C103.451 194.643 103.541 194.582 103.597 194.494C103.653 194.407 103.672 194.3 103.649 194.199C103.628 194.097 103.567 194.007 103.48 193.95C103.393 193.892 103.286 193.871 103.184 193.892L100.104 194.537C100.002 194.558 99.9118 194.619 99.8542 194.706C99.7966 194.793 99.776 194.899 99.7969 195.002ZM112.053 192.161C112.078 192.375 112.27 192.528 112.483 192.509C112.52 192.519 112.559 192.518 112.596 192.507C113.62 192.256 114.636 191.993 115.645 191.721C115.785 191.684 115.896 191.575 115.934 191.435C115.973 191.295 115.934 191.145 115.832 191.042C115.73 190.939 115.58 190.897 115.44 190.934L112.399 191.721C112.182 191.747 112.027 191.944 112.053 192.161ZM124.222 188.786C124.269 188.951 124.421 189.064 124.592 189.061V189.069C124.633 189.069 124.673 189.061 124.71 189.045C125.727 188.731 126.727 188.416 127.719 188.093C127.926 188.026 128.039 187.804 127.971 187.598C127.941 187.497 127.871 187.414 127.777 187.366C127.683 187.319 127.574 187.311 127.475 187.346C127.202 187.432 126.93 187.519 126.657 187.607C125.936 187.837 125.213 188.068 124.482 188.29C124.381 188.321 124.297 188.391 124.248 188.484C124.2 188.577 124.19 188.686 124.222 188.786ZM136.525 185.041C136.361 185.036 136.215 184.934 136.155 184.781C136.081 184.577 136.187 184.351 136.391 184.277C137.07 184.032 137.737 183.783 138.401 183.535L138.404 183.534L138.405 183.533C138.719 183.416 139.032 183.3 139.345 183.184C139.539 183.135 139.74 183.239 139.81 183.427C139.881 183.614 139.799 183.824 139.621 183.915C138.644 184.285 137.66 184.647 136.659 185.009C136.619 185.034 136.573 185.048 136.525 185.048V185.041ZM147.899 180.217C147.956 180.367 148.101 180.465 148.261 180.461C148.313 180.462 148.364 180.452 148.411 180.43L151.317 179.202C151.518 179.115 151.609 178.883 151.522 178.683C151.435 178.483 151.203 178.392 151.002 178.478C150.3 178.806 149.584 179.099 148.858 179.396L148.858 179.396C148.608 179.498 148.356 179.601 148.104 179.706C147.908 179.792 147.817 180.02 147.899 180.217Z" fill="#D1D3D4"/>
<path d="M27.8358 135.77C27.7157 135.77 27.6021 135.715 27.5286 135.62C27.3955 135.446 27.4271 135.197 27.5995 135.062C28.0248 134.747 28.4502 134.432 28.8834 134.125C28.9984 134.036 29.1533 134.018 29.2861 134.077C29.4189 134.137 29.5079 134.265 29.5176 134.41C29.5273 134.555 29.456 134.694 29.3323 134.771C28.907 135.07 28.4896 135.376 28.08 135.691C28.0097 135.744 27.9237 135.772 27.8358 135.77Z" fill="#D1D3D4"/>
<path d="M204.475 88.7572C204.375 88.7602 204.277 88.7201 204.208 88.647C204.134 88.5745 204.092 88.4752 204.092 88.3716C204.092 88.268 204.134 88.1687 204.208 88.0962C204.208 88.0962 204.594 87.6871 205.263 86.9475C205.349 86.8212 205.501 86.7562 205.652 86.7808C205.803 86.8053 205.926 86.915 205.967 87.062C206.009 87.2091 205.962 87.3669 205.846 87.4668C205.169 88.2536 204.775 88.6391 204.775 88.6391C204.697 88.7201 204.588 88.7632 204.475 88.7572Z" fill="#D1D3D4"/>
<path fill-rule="evenodd" clip-rule="evenodd" d="M205.303 17.243H205.373V17.2194C205.557 17.2241 205.718 17.0991 205.759 16.9204C205.793 16.7061 205.65 16.504 205.436 16.4641C204.378 16.2831 203.31 16.1622 202.239 16.1022C202.132 16.0885 202.026 16.1214 201.946 16.1922C201.866 16.2631 201.82 16.3651 201.821 16.472C201.815 16.5763 201.85 16.679 201.919 16.7572C201.989 16.8355 202.087 16.8829 202.191 16.889C203.234 16.946 204.273 17.0642 205.303 17.243ZM211.438 19.0921C211.384 19.1029 211.328 19.1029 211.273 19.0921C210.324 18.6606 209.348 18.2926 208.351 17.9905C208.21 17.9498 208.102 17.8371 208.067 17.695C208.032 17.5529 208.075 17.4029 208.181 17.3016C208.287 17.2003 208.438 17.1629 208.579 17.2037C209.612 17.5128 210.622 17.8914 211.604 18.3367C211.699 18.3795 211.772 18.4587 211.808 18.5565C211.844 18.6543 211.838 18.7623 211.793 18.856C211.726 18.9894 211.588 19.0722 211.438 19.0685V19.0921ZM216.479 22.4361C216.553 22.4956 216.645 22.5288 216.739 22.5305V22.5069C216.838 22.5069 216.933 22.4704 217.007 22.4046C217.158 22.2489 217.158 22.0016 217.007 21.8459C216.199 21.1293 215.338 20.4744 214.431 19.8868C214.313 19.8017 214.158 19.7888 214.027 19.8531C213.896 19.9175 213.812 20.0487 213.808 20.1941C213.803 20.3396 213.88 20.4756 214.006 20.5477C214.877 21.1137 215.704 21.745 216.479 22.4361ZM220.788 27.3852C220.651 27.3862 220.524 27.318 220.449 27.2042C219.906 26.3179 219.301 25.4713 218.638 24.6706C218.502 24.503 218.526 24.2573 218.693 24.1199C218.771 24.0517 218.874 24.0182 218.978 24.0271C219.082 24.036 219.178 24.0865 219.244 24.1671C219.928 24.9885 220.554 25.856 221.119 26.7636C221.176 26.8516 221.196 26.9594 221.172 27.0619C221.148 27.1645 221.083 27.2528 220.993 27.3065C220.931 27.344 220.86 27.3631 220.788 27.3616V27.3852ZM223.041 32.8693C223.095 33.0309 223.248 33.139 223.419 33.1368V33.1132C223.46 33.123 223.502 33.1257 223.545 33.1211C223.748 33.0504 223.857 32.8295 223.789 32.6254C223.459 31.6055 223.072 30.6046 222.631 29.6276C222.572 29.4997 222.449 29.413 222.308 29.4002C222.168 29.3874 222.031 29.4503 221.95 29.5654C221.869 29.6805 221.855 29.8302 221.914 29.9581C222.343 30.9071 222.719 31.879 223.041 32.8693ZM224.844 39.3055C224.648 39.3041 224.481 39.161 224.45 38.9672C224.301 37.9128 224.104 36.8742 223.875 35.8828C223.828 35.6656 223.965 35.4507 224.183 35.4029C224.4 35.3551 224.615 35.4925 224.663 35.7097C224.891 36.7169 225.088 37.7791 225.246 38.857C225.274 39.0711 225.128 39.2693 224.915 39.3055H224.844ZM224.962 45.2146C224.967 45.4287 225.142 45.6001 225.356 45.6001H225.364C225.58 45.5916 225.75 45.4144 225.75 45.1988C225.726 44.113 225.671 43.0429 225.593 42.0122C225.584 41.9077 225.535 41.8108 225.455 41.7428C225.375 41.6749 225.272 41.6416 225.167 41.6503C225.063 41.6563 224.966 41.7039 224.898 41.7824C224.83 41.861 224.796 41.9637 224.805 42.0673C224.884 43.0901 224.962 44.1445 224.962 45.2146ZM225.175 51.9419H225.136C224.921 51.9211 224.763 51.7317 224.781 51.517C224.781 51.3285 224.802 51.1426 224.822 50.9563C224.838 50.816 224.853 50.6755 224.86 50.5335C224.86 50.088 224.886 49.6455 224.912 49.2094L224.912 49.2093C224.929 48.9291 224.945 48.6515 224.955 48.3776C224.954 48.2725 224.997 48.172 225.073 48.0992C225.149 48.0265 225.251 47.9877 225.356 47.992C225.572 48.0005 225.742 48.1777 225.742 48.3933C225.742 48.9385 225.71 49.4883 225.678 50.0496L225.678 50.0497C225.667 50.2255 225.657 50.4024 225.648 50.5807C225.648 50.8322 225.622 51.0795 225.595 51.3288C225.586 51.4148 225.577 51.501 225.569 51.5878C225.545 51.7878 225.377 51.9393 225.175 51.9419ZM223.734 58.142H223.852H223.883C224.036 58.1435 224.177 58.0581 224.246 57.9217C224.545 56.828 224.813 55.7816 225.033 54.7744C225.072 54.5624 224.937 54.3574 224.726 54.3102C224.515 54.2663 224.308 54.3994 224.261 54.6092C224.057 55.5927 223.789 56.6156 223.474 57.6463C223.412 57.8546 223.527 58.0744 223.734 58.142ZM221.56 64.0589C221.505 64.0702 221.449 64.0702 221.394 64.0589C221.299 64.0162 221.226 63.9369 221.19 63.8391C221.154 63.7413 221.16 63.6333 221.205 63.5396C221.654 62.5561 222.072 61.5804 222.434 60.6363C222.471 60.5377 222.546 60.4581 222.642 60.4153C222.738 60.3724 222.848 60.3698 222.946 60.4081C223.148 60.4885 223.25 60.7154 223.174 60.9195C222.796 61.8794 222.387 62.8708 221.922 63.8622C221.851 63.9787 221.727 64.0524 221.591 64.0589H221.56ZM218.441 69.6454C218.499 69.6827 218.568 69.7018 218.638 69.7004H218.669C218.797 69.6891 218.912 69.6156 218.976 69.5037C219.52 68.5596 220.04 67.6232 220.512 66.7027C220.612 66.5093 220.536 66.2715 220.343 66.1715C220.149 66.0716 219.911 66.1473 219.811 66.3407C219.346 67.2456 218.834 68.1819 218.299 69.1103C218.245 69.1997 218.23 69.307 218.256 69.4078C218.283 69.5086 218.35 69.5943 218.441 69.6454ZM215.266 75.0823C215.119 75.0869 214.981 75.0069 214.913 74.8763C214.844 74.7458 214.856 74.5874 214.943 74.4686C215.518 73.6109 216.101 72.7297 216.668 71.817C216.786 71.6357 217.026 71.5801 217.212 71.6911C217.394 71.8086 217.447 72.0514 217.33 72.234C216.787 73.1074 216.204 74.0044 215.597 74.9092C215.529 75.0099 215.419 75.0738 215.298 75.0823H215.266ZM211.328 80.173C211.398 80.221 211.48 80.2483 211.564 80.2517L211.596 80.2675C211.712 80.2554 211.816 80.1918 211.879 80.0944C212.502 79.2839 213.132 78.4263 213.778 77.5293C213.904 77.3512 213.862 77.1046 213.683 76.9785C213.505 76.8525 213.258 76.8948 213.132 77.073C212.494 77.9621 211.864 78.8276 211.257 79.6144C211.124 79.7887 211.156 80.0374 211.328 80.173ZM207.366 85.1143C207.439 85.1749 207.531 85.2083 207.626 85.2087C207.756 85.2216 207.883 85.1683 207.965 85.0671C208.579 84.3432 209.264 83.517 209.989 82.6043C210.056 82.5236 210.086 82.4194 210.074 82.3156C210.063 82.2118 210.009 82.1172 209.926 82.0535C209.756 81.9196 209.51 81.9478 209.375 82.1165C209.034 82.5265 208.705 82.9313 208.388 83.3203L208.388 83.3205C208.03 83.7601 207.688 84.1795 207.366 84.5635C207.292 84.636 207.25 84.7353 207.25 84.8389C207.25 84.9425 207.292 85.0418 207.366 85.1143Z" fill="#D1D3D4"/>
<path d="M197.442 17.0149C197.302 17.0261 197.165 16.9615 197.085 16.8454C197.005 16.7293 196.993 16.5793 197.054 16.452C197.114 16.3246 197.239 16.2393 197.379 16.228C197.901 16.1465 198.427 16.094 198.955 16.0707C199.172 16.0576 199.359 16.2232 199.372 16.4405C199.385 16.6577 199.219 16.8445 199.002 16.8575C198.049 16.9126 197.482 16.9991 197.482 16.9991L197.442 17.0149Z" fill="#D1D3D4"/>
<path d="M1.96824 52.0147C1.06594 50.9119 1.22935 49.2863 2.33308 48.3852L25.1854 29.7271C26.2875 28.8273 27.9103 28.9904 28.8112 30.0916L38.0425 41.3741C38.9448 42.4769 38.7814 44.1026 37.6777 45.0037L14.8253 63.6617C13.7232 64.5616 12.1005 64.3985 11.1995 63.2973L1.96824 52.0147Z" fill="white"/>
<path fill-rule="evenodd" clip-rule="evenodd" d="M12.8791 64.8693H13.1233C13.6754 64.8704 14.2105 64.6783 14.6356 64.3264L38.3834 44.9391C38.8807 44.5427 39.197 43.9628 39.2608 43.3305C39.3245 42.6981 39.1303 42.0668 38.7221 41.5794L28.7504 29.3915C28.3536 28.8947 27.773 28.5787 27.14 28.5151C26.507 28.4514 25.8751 28.6454 25.3871 29.0532L1.63927 48.4483C1.14195 48.8447 0.825644 49.4246 0.761899 50.057C0.698154 50.6893 0.892356 51.3206 1.30057 51.808L11.3038 64.0038C11.6942 64.4884 12.2604 64.7994 12.8791 64.8693ZM25.8833 29.659C26.1727 29.4306 26.5305 29.3059 26.8994 29.3049C27.3856 29.3042 27.8449 29.5278 28.1439 29.9108L38.1156 42.0751C38.3908 42.4009 38.5219 42.8244 38.4789 43.2486C38.4358 43.6728 38.2223 44.0613 37.8872 44.3254L14.1551 63.7205C13.8253 63.9873 13.404 64.1144 12.9815 64.0746C12.5578 64.0341 12.1686 63.8241 11.9024 63.4924L1.9307 51.3124C1.66389 50.9797 1.53681 50.5565 1.57625 50.1321C1.61082 49.7125 1.81224 49.3243 2.13549 49.0542L25.8833 29.659Z" fill="#D1D3D4"/>
<path d="M1.18209 50.3681C0.964588 50.3681 0.788265 50.192 0.788265 49.9747C0.77732 49.8711 0.80882 49.7675 0.875589 49.6875C0.942359 49.6074 1.03871 49.5578 1.14271 49.5498L20.9365 47.8346L26.5604 28.8014C26.5877 28.7 26.6553 28.6141 26.7474 28.5636C26.8396 28.5131 26.9484 28.5024 27.0487 28.5338C27.2543 28.5981 27.3702 28.8154 27.3086 29.0217L21.6218 48.3145C21.5795 48.4705 21.4442 48.5836 21.2831 48.5978L1.22148 50.3681H1.18209Z" fill="#D1D3D4"/>
<path d="M22.055 45.7731C21.8375 45.7731 21.6611 45.597 21.6611 45.3797C21.6611 45.1624 21.8375 44.9863 22.055 44.9863L38.8005 43.0743C39.0143 43.0556 39.2051 43.208 39.2337 43.4205C39.247 43.525 39.2179 43.6304 39.1527 43.7133C39.0876 43.7961 38.9919 43.8493 38.8872 43.8611L22.1258 45.7731H22.055Z" fill="#D1D3D4"/>
<path d="M13.0987 64.8694C13.0597 64.8768 13.0196 64.8768 12.9806 64.8694C12.8801 64.8388 12.7964 64.7687 12.7489 64.6751C12.7013 64.5816 12.694 64.4727 12.7285 64.3737L17.9349 48.3618C17.9785 48.2213 18.0939 48.1146 18.2376 48.0821C18.3812 48.0496 18.5314 48.0961 18.6314 48.2041C18.7314 48.3121 18.7662 48.4652 18.7226 48.6057L13.5162 64.6176C13.4498 64.7859 13.2788 64.889 13.0987 64.8694Z" fill="#D1D3D4"/>
<path d="M214.901 105.88C215.356 104.832 216.575 104.35 217.624 104.804L239.398 114.235C240.448 114.69 240.93 115.91 240.475 116.96L235.807 127.714C235.352 128.763 234.133 129.244 233.085 128.79L211.31 119.359C210.26 118.904 209.778 117.684 210.233 116.635L214.901 105.88Z" fill="white"/>
<path fill-rule="evenodd" clip-rule="evenodd" d="M233.375 129.326C233.624 129.433 233.891 129.489 234.162 129.491C234.417 129.483 234.669 129.427 234.903 129.326C235.395 129.132 235.789 128.749 235.998 128.264L241.039 116.674C241.243 116.185 241.243 115.636 241.039 115.147C240.844 114.654 240.462 114.257 239.975 114.046L217.346 104.25C216.332 103.816 215.158 104.279 214.715 105.288L209.682 116.894C209.481 117.386 209.481 117.937 209.682 118.428C209.877 118.922 210.263 119.316 210.753 119.522L233.375 129.326ZM215.495 105.603C215.686 105.16 216.122 104.873 216.605 104.871C216.761 104.874 216.913 104.909 217.054 104.974L239.668 114.777C239.966 114.902 240.2 115.144 240.314 115.446C240.436 115.741 240.436 116.072 240.314 116.367L235.273 127.98C235.149 128.276 234.91 128.509 234.611 128.626C234.313 128.747 233.98 128.747 233.682 128.626L211.052 118.822C210.446 118.559 210.165 117.856 210.422 117.248L215.495 105.603Z" fill="#D1D3D4"/>
<path d="M224.742 118.617C224.608 118.62 224.482 118.551 224.412 118.436L215.747 104.761C215.632 104.577 215.688 104.333 215.873 104.218C216.058 104.103 216.302 104.16 216.417 104.344L224.908 117.791L240.543 114.793C240.645 114.77 240.753 114.79 240.841 114.848C240.928 114.906 240.989 114.997 241.007 115.1C241.046 115.315 240.906 115.521 240.692 115.564L224.797 118.617H224.742Z" fill="#D1D3D4"/>
<path d="M234.62 129.42C234.488 129.42 234.364 129.356 234.289 129.247L226.743 118.035C226.625 117.854 226.674 117.612 226.854 117.492C226.94 117.433 227.046 117.411 227.149 117.432C227.251 117.453 227.341 117.514 227.397 117.602L234.943 128.846C235.062 129.029 235.013 129.274 234.833 129.397C234.765 129.423 234.692 129.431 234.62 129.42Z" fill="#D1D3D4"/>
<path d="M210.107 118.822C209.912 118.824 209.745 118.684 209.714 118.491C209.698 118.388 209.724 118.283 209.786 118.198C209.848 118.114 209.941 118.058 210.044 118.043L223.434 115.855C223.575 115.833 223.717 115.887 223.807 115.998C223.897 116.108 223.921 116.258 223.87 116.391C223.819 116.524 223.701 116.62 223.56 116.642L210.17 118.83L210.107 118.822Z" fill="#D1D3D4"/>
<path d="M63.3653 13.6849C63.6282 12.8925 64.4835 12.4631 65.2761 12.7255L81.7463 18.1796C82.5396 18.4422 82.9695 19.2985 82.7063 20.0916L80.0058 28.2294C79.7429 29.0218 78.8876 29.4513 78.095 29.1888L61.6247 23.7348C60.8315 23.4721 60.4016 22.6159 60.6648 21.8228L63.3653 13.6849Z" fill="white"/>
<path fill-rule="evenodd" clip-rule="evenodd" d="M78.2773 29.659C78.435 29.7108 78.5998 29.7374 78.7657 29.7377C79.445 29.7383 80.0482 29.3039 80.2622 28.6598L83.1687 19.8789C83.4391 19.0578 82.996 18.1726 82.1762 17.8961L65.0605 12.2309C64.2387 11.9666 63.357 12.4122 63.0835 13.2302L60.1691 22.0111C60.0389 22.4056 60.07 22.8355 60.2558 23.2071C60.4419 23.5785 60.7675 23.8614 61.1616 23.9939L78.2773 29.659ZM79.1201 28.9116C78.9284 28.9903 78.7133 28.9903 78.5215 28.9116L61.4294 23.2858C61.2323 23.2223 61.0682 23.0838 60.9725 22.9002C60.8978 22.7079 60.8978 22.4946 60.9725 22.3023L63.8869 13.5213C63.9522 13.3274 64.0907 13.1665 64.2728 13.0728C64.4583 12.9788 64.6735 12.9618 64.8714 13.0256L81.9872 18.6908C82.1827 18.7579 82.344 18.8992 82.4362 19.0842C82.5149 19.2757 82.5149 19.4906 82.4362 19.6821L79.514 28.4552C79.4485 28.6535 79.3068 28.8177 79.1201 28.9116Z" fill="#D1D3D4"/>
<path d="M71.3224 22.436C71.1988 22.4348 71.0825 22.3767 71.0074 22.2786L63.8003 12.884C63.6835 12.7119 63.7209 12.4788 63.8856 12.3518C64.0503 12.2248 64.2855 12.2476 64.4226 12.404L71.4406 21.5862L82.5623 18.4389C82.6636 18.41 82.7723 18.4229 82.8641 18.4746C82.9559 18.5264 83.0231 18.6127 83.0506 18.7143C83.1059 18.9228 82.983 19.1368 82.7749 19.1943L71.4012 22.4517L71.3224 22.436Z" fill="#D1D3D4"/>
<path d="M79.215 29.659C79.0946 29.6609 78.9806 29.6054 78.9078 29.5096L72.6854 21.8144C72.5483 21.645 72.5748 21.3966 72.7444 21.2597C72.9141 21.1228 73.1627 21.1493 73.2997 21.3187L79.5222 29.0217C79.6562 29.1914 79.6281 29.4374 79.4592 29.5725C79.3896 29.6275 79.3037 29.6579 79.215 29.659V29.659Z" fill="#D1D3D4"/>
<path d="M60.65 23.5218C60.5093 23.5386 60.3702 23.4792 60.2853 23.366C60.2003 23.2527 60.1823 23.1027 60.238 22.9725C60.2937 22.8424 60.4148 22.7518 60.5555 22.735L70.1491 20.2801C70.2504 20.2538 70.358 20.2689 70.4482 20.3221C70.5384 20.3752 70.6036 20.462 70.6296 20.5633C70.6557 20.6635 70.6404 20.7701 70.587 20.8589C70.5337 20.9477 70.4468 21.0113 70.346 21.0354L60.7524 23.4982L60.65 23.5218Z" fill="#D1D3D4"/>
</svg>
